<svg id="visual" viewBox="0 0 900 100" width="900" height="100" xmlns="http://www.w3.org/2000/svg" xmlns:xlink="http://www.w3.org/1999/xlink" version="1.1"><rect x="0" y="0" width="900" height="100" fill="#fff"></rect><path d="M0 56L16.7 56.5C33.3 57 66.7 58 100 56.7C133.3 55.3 166.7 51.7 200 48.2C233.3 44.7 266.7 41.3 300 42.7C333.3 44 366.7 50 400 50C433.3 50 466.7 44 500 44.3C533.3 44.7 566.7 51.3 600 55.5C633.3 59.7 666.7 61.3 700 57.8C733.3 54.3 766.7 45.7 800 45.5C833.3 45.3 866.7 53.7 883.3 57.8L900 62L900 0L883.3 0C866.7 0 833.3 0 800 0C766.7 0 733.3 0 700 0C666.7 0 633.3 0 600 0C566.7 0 533.3 0 500 0C466.7 0 433.3 0 400 0C366.7 0 333.3 0 300 0C266.7 0 233.3 0 200 0C166.7 0 133.3 0 100 0C66.7 0 33.3 0 16.7 0L0 0Z" fill="#159dee" stroke-linecap="round" stroke-linejoin="miter"></path></svg>